# xmcd CD database file
#
# Track frame offsets:
#	150
#	14597
#	23520
#	34299
#	42413
#	54477
#	64471
#	72681
#	84951
#	94098
#	105628
#	117170
#
# Disc length: 1743 seconds
#
# Revision: 0
# Processed by: cddbd v1.5.2PL0 Copyright (c) Steve Scherf et al.
# Submitted via: CDex 1.70beta2
#
DISCID=a206cd0c
DTITLE=Nelson, Willie (USA-04-cty) - Original American Classics - Vol. 2
DYEAR=2004
DGENRE=Country
TTITLE0=Will You Remember Mine
TTITLE1=Why Are You Picki8ng On Me
TTITLE2=Blame It On The Times
TTITLE3=Things To Remember
TTITLE4=Following Me Arround
TTITLE5=The Healing Hands Of Time
TTITLE6=You Wouldn't Cross The Street To Say Goodbye
TTITLE7=I Can't Find The Time
TTITLE8=Right From Wrong
TTITLE9=Touch me
TTITLE10=December Days
TTITLE11=No Tomorrow In Sight
EXTD=YEAR: 2004
EXTT0=
EXTT1=
EXTT2=
EXTT3=
EXTT4=
EXTT5=
EXTT6=
EXTT7=
EXTT8=
EXTT9=
EXTT10=
EXTT11=
PLAYORDER=
